<?xml version="1.0" encoding="iso-8859-1"?>
<!-- Generator: Adobe Illustrator 16.0.0, SVG Export Plug-In . SVG Version: 6.00 Build 0)  -->
<!DOCTYPE svg PUBLIC "-//W3C//DTD SVG 1.1//EN" "http://www.w3.org/Graphics/SVG/1.1/DTD/svg11.dtd">
<svg version="1.1" id="Layer_1" xmlns="http://www.w3.org/2000/svg" xmlns:xlink="http://www.w3.org/1999/xlink" x="0px" y="0px"
	 width="2469px" height="1010px" viewBox="0 0 2469 1010" style="enable-background:new 0 0 2469 1010;" xml:space="preserve">
<path style="fill-rule:evenodd;clip-rule:evenodd;fill:#FFFEF9;" d="M695,161c0,0,119.014-170.448-185-82c0,0-111,48-131,68
	c0,0-105,72-136,117c0,0-53,77-20,101c0,0,23,27,83,39c0,0,72,15,50,74l-126,65c0,0-6,5,4,6c0,0,19,3,1,7c0,0-32,11-42,15
	c0,0-29-9,31-38c0,0,75-48,80-56c0,0,32-29-19-50c0,0-8-1-61-30c0,0-100-43,20-180c0,0,207-212,415-186c0,0,176,5,49,161
	c0,0-241,233-298,305c0,0-228,276-289,382c0,0-6,9,11,0c0,0,25-6,1,22c0,0-41,47-51,71c0,0-15,32-40-15c0,0-28-7,104-168
	c0,0,265-334,282-345c0,0,160-173,185-194C613,250,662,208,695,161z"/>
<path style="fill-rule:evenodd;clip-rule:evenodd;fill:#FFFEF9;" d="M504,468c0,0-6-23-21,3c0,0-5,10,14,6L504,468z"/>
<path style="fill-rule:evenodd;clip-rule:evenodd;fill:#FFFEF9;" d="M685,388c0,0,20-24-16-23c0,0-71,3-104,52c0,0-17,40,30,43
	c0,0,36,7,119-52l77-9c0,0-13,37,26,52c0,0,58,12,101-33c0,0,26-23,1-49c0,0-49-2-47,15c0,0,0,12,20,6c0,0-1-10,17-6c0,0,18,7-7,22
	c0,0-14,33-76,24c0,0-27-19,6-47c0,0,23-10,30-8c0,0,6-7,1-18c0,0-26-8-71,26c0,0-50,11-92,10c0,0-19,34-97,46c0,0-39,2,7-33
	c0,0,18-21,52-23L685,388z"/>
<path style="fill-rule:evenodd;clip-rule:evenodd;fill:#FFFEF9;" d="M1024,270l1376,11l-1,17l-965-2l-20,146h-24l5-144l-371-2V270z"
	/>
<path style="fill-rule:evenodd;clip-rule:evenodd;fill:#FFFEF9;" d="M1364,327l-9,104c0,0,2,27-38-5c0,0-58-56-169-40
	c0,0-112,36-156,55c0,0-6,3-21,1c0,0,194-160,362-32v-81L1364,327z"/>
<path style="fill-rule:evenodd;clip-rule:evenodd;fill:#FFFEF9;" d="M1694,366c0,0-11-15-17-13l-18,12c0,0-100-38-147,30
	c0,0-21,37,60,39c0,0,62-2,66-17c0,0,3-15-24-5c0,0-41,9-63,0c0,0-33-1,1-31c0,0,16-17,114,4C1666,385,1679,379,1694,366z"/>
<path style="fill-rule:evenodd;clip-rule:evenodd;fill:#FFFEF9;" d="M1712,433c0,0-3,8-18-1c0,0,8-49,4-56c0,0,113-52,151-30
	c0,0,20,24-15,57c0,0,99-35,104-16c0,0,10,13-63,25c0,0-80,20-97,35c0,0-23-10-2-21c0,0,71-55,52-59c0,0,9-25-75,6c0,0-45,3-41,45
	V433z"/>
<path style="fill-rule:evenodd;clip-rule:evenodd;fill:#FFFEF9;" d="M2395,330l-1,109c0,0-2,9-14,1c0,0-171-63-391-37
	c0,0-39-25,16-26c0,0,226-3,356,32l1-78C2362,331,2383,329,2395,330z"/>
<path style="fill:#FFFEF9;" d="M1733.564,617.993h27.998c3.659,0,7.264-0.275,10.815-0.824c3.549-0.549,6.698-1.452,9.442-2.707
	c2.745-1.255,4.958-2.915,6.643-4.981c1.683-2.065,2.525-4.615,2.525-7.648c0-3.766-1.575-6.772-4.721-9.021
	c-3.148-2.248-7.174-3.609-12.077-4.08v-0.157c4.024-0.889,7.282-2.354,9.771-4.393c2.488-2.04,3.733-4.628,3.733-7.766
	c0-2.51-0.696-4.654-2.086-6.433c-1.391-1.777-3.203-3.229-5.435-4.354c-2.233-1.124-4.776-1.934-7.631-2.432
	c-2.854-0.497-5.747-0.745-8.674-0.745h-30.304V617.993z M1747.398,570.611h11.089c5.271,0,9.149,0.523,11.639,1.569
	c2.488,1.047,3.733,2.824,3.733,5.334c0,2.406-1.208,4.263-3.623,5.57c-2.416,1.308-5.929,1.961-10.541,1.961h-12.297V570.611z
	 M1747.398,593.518h12.956c5.636,0,9.844,0.576,12.627,1.726c2.781,1.151,4.172,3.19,4.172,6.119c0,1.831-0.567,3.294-1.702,4.393
	c-1.136,1.099-2.563,1.936-4.282,2.511c-1.721,0.576-3.606,0.955-5.654,1.137c-2.05,0.184-3.953,0.275-5.709,0.275h-12.407V593.518z
	"/>
<path style="fill:#FFFEF9;" d="M1810.53,617.993h15.481l7.027-12.709h33.708l7.247,12.709h15.811l-33.488-55.541h-11.968
	L1810.53,617.993z M1837.76,596.812l12.188-22.593l11.968,22.593H1837.76z"/>
<path style="fill:#FFFEF9;" d="M1912.861,617.993h13.834V593.36h36.343v24.633h13.834v-55.541h-13.834v22.436h-36.343v-22.436
	h-13.834V617.993z"/>
<path style="fill:#FFFEF9;" d="M2009.372,617.993h13.835v-42.911h0.219l36.892,42.911h17.567v-55.541h-13.834v41.577h-0.22
	l-36.123-41.577h-18.336V617.993z"/>
<path style="fill:#FFFEF9;" d="M2126.086,617.993h13.834v-46.912h23.826v-8.629h-61.487v8.629h23.826V617.993z"/>
<path style="fill:#FFFEF9;" d="M2188.121,617.993h13.834V593.36h36.343v24.633h13.834v-55.541h-13.834v22.436h-36.343v-22.436
	h-13.834V617.993z"/>
<path style="fill:#FFFEF9;" d="M2275.19,617.993h15.481l7.027-12.709h33.708l7.247,12.709h15.811l-33.488-55.541h-11.968
	L2275.19,617.993z M2302.419,596.812l12.188-22.593l11.968,22.593H2302.419z"/>
<path style="fill:#FFFEF9;" d="M2377.52,617.993h13.834v-55.541h-13.834V617.993z"/>
<path style="fill-rule:evenodd;clip-rule:evenodd;fill:#FFFFFF;" d="M583.867,44.386c-6.449,0-6.449,10,0,10
	S590.316,44.386,583.867,44.386z"/>
<path style="fill-rule:evenodd;clip-rule:evenodd;fill:#FFFEF9;" d="M202.829,305.413c-6.449,0-6.449,10,0,10
	S209.278,305.413,202.829,305.413z"/>
</svg>
